<svg xmlns="http://www.w3.org/2000/svg" version="1.1" xmlns:xlink="http://www.w3.org/1999/xlink" xmlns:svgjs="http://svgjs.dev/svgjs" width="1000" height="381" viewBox="0 0 1000 381"><g transform="matrix(1,0,0,1,-0.6060606060606233,-0.3727855601075589)"><svg viewBox="0 0 396 151" data-background-color="#ffffff" preserveAspectRatio="xMidYMid meet" height="381" width="1000" xmlns="http://www.w3.org/2000/svg" xmlns:xlink="http://www.w3.org/1999/xlink"><g id="tight-bounds" transform="matrix(1,0,0,1,0.2400000000000091,0.14774440833659241)"><svg viewBox="0 0 395.52 150.70451118332682" height="150.70451118332682" width="395.52"><g><svg viewBox="0 0 395.52 150.70451118332682" height="150.70451118332682" width="395.52"><g transform="matrix(1,0,0,1,0,110.6518529554787)"><svg viewBox="0 0 395.52 40.0526582278481" height="40.0526582278481" width="395.52"><g id="textblocktransform"><svg viewBox="0 0 395.52 40.0526582278481" height="40.0526582278481" width="395.52" id="textblock"><g><svg viewBox="0 0 395.52 40.0526582278481" height="40.0526582278481" width="395.52"><g transform="matrix(1,0,0,1,0,0)"><svg width="395.52" viewBox="0 -50 487.48 50" height="40.0526582278481" data-palette-color="#085f63"><g class="wordmark-text-0" data-fill-palette-color="primary" id="text-0"><path d="M12.5 0L0 0 0-37.5 37.5-37.5 37.5-31.25 43.75-31.25 43.75-18.75 37.5-18.75 37.5-12.5 12.5-12.5 12.5 0ZM12.5-31.25L12.5-18.75 31.25-18.75 31.25-31.25 12.5-31.25ZM62.5-6.25L50-6.25 50-50 62.5-50 62.5-37.5 87.5-37.5 87.5-31.25 93.75-31.25 93.75-6.25 81.25-6.25 81.25-31.25 62.5-31.25 62.5-6.25ZM137.5-6.25L106.25-6.25 106.25-12.5 100-12.5 100-31.25 106.25-31.25 106.25-37.5 137.5-37.5 137.5-31.25 143.75-31.25 143.75-12.5 137.5-12.5 137.5-6.25ZM112.5-31.25L112.5-12.5 131.25-12.5 131.25-31.25 112.5-31.25ZM162.49-6.25L149.99-6.25 149.99-37.5 187.49-37.5 187.49-31.25 193.74-31.25 193.74-6.25 181.24-6.25 181.24-31.25 162.49-31.25 162.49-6.25ZM237.49-6.25L206.24-6.25 206.24-12.5 199.99-12.5 199.99-31.25 206.24-31.25 206.24-37.5 237.49-37.5 237.49-31.25 243.74-31.25 243.74-18.75 212.49-18.75 212.49-12.5 237.49-12.5 237.49-6.25ZM212.49-31.25L212.49-25 231.24-25 231.24-31.25 212.49-31.25Z" fill="#085f63" data-fill-palette-color="primary"></path><path d="M331.24-6.25L299.99-6.25 299.99-12.5 293.74-12.5 293.74-50 306.24-50 306.24-37.5 331.24-37.5 331.24-31.25 337.49-31.25 337.49-12.5 331.24-12.5 331.24-6.25ZM306.24-31.25L306.24-12.5 324.99-12.5 324.99-31.25 306.24-31.25ZM381.24-6.25L349.99-6.25 349.99-12.5 343.74-12.5 343.74-31.25 349.99-31.25 349.99-37.5 381.24-37.5 381.24-31.25 387.49-31.25 387.49-12.5 381.24-12.5 381.24-6.25ZM356.24-31.25L356.24-12.5 374.99-12.5 374.99-31.25 356.24-31.25ZM431.23-6.25L399.98-6.25 399.98-12.5 393.73-12.5 393.73-31.25 399.98-31.25 399.98-37.5 431.23-37.5 431.23-31.25 437.48-31.25 437.48-12.5 431.23-12.5 431.23-6.25ZM406.23-31.25L406.23-12.5 424.98-12.5 424.98-31.25 406.23-31.25ZM456.23-6.25L443.73-6.25 443.73-50 456.23-50 456.23-25 468.73-25 468.73-31.25 474.98-31.25 474.98-37.5 487.48-37.5 487.48-31.25 481.23-31.25 481.23-25 474.98-25 474.98-18.75 481.23-18.75 481.23-12.5 487.48-12.5 487.48-6.25 474.98-6.25 474.98-12.5 468.73-12.5 468.73-18.75 456.23-18.75 456.23-6.25Z" fill="#49beb7" data-fill-palette-color="secondary"></path></g></svg></g></svg></g></svg></g></svg></g><g transform="matrix(1,0,0,1,151.88954486605812,0)"><svg viewBox="0 0 91.74091026788376 91.74091026788376" height="91.74091026788376" width="91.74091026788376"><g><svg></svg></g><g id="icon-0"><svg viewBox="0 0 91.74091026788376 91.74091026788376" height="91.74091026788376" width="91.74091026788376"><g><path d="M0 45.87c0-25.334 20.537-45.87 45.87-45.87 25.334 0 45.87 20.537 45.871 45.87 0 25.334-20.537 45.87-45.871 45.871-25.334 0-45.87-20.537-45.87-45.871zM45.87 88.129c23.339 0 42.258-18.92 42.259-42.259 0-23.339-18.92-42.258-42.259-42.258-23.339 0-42.258 18.92-42.258 42.258 0 23.339 18.92 42.258 42.258 42.259z" data-fill-palette-color="accent" fill="#49beb7" stroke="transparent"></path></g><g transform="matrix(1,0,0,1,30.175780503354623,24.631161522439257)"><svg viewBox="0 0 31.38934926117452 42.47858722300525" height="42.47858722300525" width="31.38934926117452"><g><svg version="1.1" xmlns="http://www.w3.org/2000/svg" xmlns:xlink="http://www.w3.org/1999/xlink" x="0" y="0" viewBox="0.00021628517234974603 0.001 73.89378371482763 99.999" enable-background="new 0 0 73.894 100" xml:space="preserve" width="31.38934926117452" height="42.47858722300525" class="icon-z$-0" data-fill-palette-color="accent" id="z$-0"><path fill="#49beb7" d="M68.759 0.001C57.947 0.087 0.009 0.112 0.009 0.112-0.062 40.059 0.32 69.361 0.345 94.308L3.916 100h69.978V8.259h-2.12c-1.046-1.082-3.714-5.468-3.684-5.468 0.254-0.001 0.304 0.035 2.79 0C70.88 2.791 69.134 0.483 68.759 0.001L68.759 0.001zM28.022 2.792c13.441-0.036 28.818-0.054 36.496 0 0 0.053 3.412 5.219 3.683 5.469L6.482 7.813l-3.46-4.911C3.022 2.903 14.582 2.821 28.022 2.792L28.022 2.792zM10.835 11.497h5.134v86.049h-5.134V11.497z" data-fill-palette-color="accent"></path></svg></g></svg></g></svg></g></svg></g><g></g></svg></g><defs></defs></svg><rect width="395.52" height="150.70451118332682" fill="none" stroke="none" visibility="hidden"></rect></g></svg></g></svg>